<svg viewBox="0 0 14 14" xmlns="http://www.w3.org/2000/svg"><path d="M14.001 7.008c.043 2.753-1.732 5.408-4.275 6.45-2.5 1.082-5.603.524-7.553-1.383C.198 10.24-.523 7.215.399 4.682 1.291 2.056 3.869.122 6.642.017c2.696-.174 5.39 1.39 6.593 3.805.504.98.767 2.082.766 3.186z" fill="#0079c1"/><path d="M14.001 7.008c.064 3.145-2.293 6.125-5.36 6.81-2.682.658-5.699-.423-7.3-2.684-1.686-2.281-1.796-5.598-.203-7.957C2.59.935 5.378-.348 8.024.077c2.724.387 5.113 2.507 5.759 5.191.145.568.219 1.154.218 1.74z" fill="#0ea5ff" fill-opacity=".937"/><path d="M3.365 2.906c-.443.25-1.19.811-.586 1.316.229.471.794.901.364 1.41-.236.938-2.062.104-1.796 1.298-.224.909.945.706 1.505.956.306.402.651 1.173.065 1.597-.413.447-.64.958 0 1.311.546.68.978-.61 1.446-.902.857-.522-.526-1.003-.525-1.68-.543-1.355-.052-2.995 1.096-3.878-.523-.475-1.046-.951-1.568-1.428zM6.608 1.423c-.732.022-1.414.28-.977 1.082.239.387-.04 1.592.679 1.191 1.817-.427 3.813.945 4.03 2.807.652-.254 1.69-.147 2.098-.632-.103-.459-.126-1.212-.791-1.005h-1.174c-.555-.55-.489-1.223-.106-1.87.418-.554-.57-.953-.931-.973-.51.284-.798 1.226-1.442.978-.892.125-.951-.887-1.308-1.447l-.078-.13zM10.307 7.737c-.351 1.675-2.097 2.908-3.795 2.62-.44-.087-.903-.387-.863.323-.047.619-.88 1.781.224 1.771.471.34.705-.15.87-.51l.47-.854c.749-.224 1.307.16 1.69.805.286.632 1.109-.04 1.3-.347-.003-.585-.689-1.29-.162-1.736.32-.843 1.234-.404 1.897-.45.305-.087.532-.965.327-1.17-.645-.175-1.307-.294-1.958-.452z" fill="#fff"/><script/><ellipse cx="6.83" cy="3.13" rx=".899" ry=".903" fill="navy" stroke-width=".039"/><path d="M11.932 4.116l-.02.478L8.36 5.84v1.724l2.098 4.341-.603.02-2.803-3.883-2.326 3.863H4.29l1.37-4.196.021-1.89-3.51-1.225v-.457l4.673.54z" fill="navy" stroke="#000" stroke-width=".042"/></svg>