<svg xmlns="http://www.w3.org/2000/svg" version="1.0" width="14" height="14"><path d="M.175 13.823h13.648V.176H.175z" fill="none" stroke="#0063a3" stroke-width=".352" stroke-linejoin="round"/><path d="M.583 13.415h12.832V.584H.583z" fill="#0063a3"/><path d="M.583 13.415h12.832V.584H.583z" fill="none" stroke="#0063a3" stroke-width=".329" stroke-linejoin="round"/><path d="M5.455 9.313l1.03.182-.052.452-1.009-.483z" fill="#fff"/><path d="M6.04 12.36c.535.333 1.198.538 2.016.535 4.263.017 4.268-5.634 4.268-5.634l-.002-.002.003.004-.01-.007c.332.056.4-.39.434-.559.034-.17-.02-.646-.023-.876.014-.307.175-1.04.174-1.336 0-.258.097-.865-.6-.673a31.42 31.42 0 01-.009-.767s-.008-.454-.037-.922a7.653 7.653 0 00-.356-1.739H6.745" fill="#fff" stroke="#fff" stroke-width=".088"/><path d="M.353 10.805c1.13 1.122 3.816 2.464 5.521 1.78a.807.807 0 00.24-.154.877.877 0 00.276-.784s.008-.143-.162-.728c-.034-.131.071-.207.208-.258.311-.116.46-.498-.003-.714 0 0-.98-.411-1.66-.846 0 0 1.267.425 2.07.425.1 0 .36.035.417-.277.024-.165-.125-.461-.125-.696 0 0-.039-.124.227-.155.039-.005 1.575-.156.467-1.92 0 0-.551-.876-.605-2.77 0-.482.056-1.895-.45-3.324" fill="#0063a3"/><path d="M.353 10.805c1.13 1.122 3.816 2.464 5.521 1.78a.807.807 0 00.24-.154.877.877 0 00.276-.784s.008-.143-.162-.728c-.034-.131.071-.207.208-.258.311-.116.46-.498-.003-.714 0 0-.98-.411-1.66-.846 0 0 1.267.425 2.07.425.1 0 .36.035.417-.277.024-.165-.125-.461-.125-.696 0 0-.039-.124.227-.155.039-.005 1.575-.156.467-1.92 0 0-.551-.876-.605-2.77 0-.482.056-1.895-.45-3.324" fill="none" stroke="#fff" stroke-width=".198" stroke-linecap="square" stroke-linejoin="round"/><path d="M8.954 4.769c-.15.033-.098-.091.002-.23.19-.263 1.015-.918 1.454.054.063.14.076.213-.02.195-.168-.032-.674-.187-1.436-.02" fill="#0063a3"/><path d="M3.643 4.692c-.15.02-.09-.099.02-.23.211-.247 1.086-.834 1.446.17.052.146.058.219-.035.193-.166-.045-.658-.24-1.43-.133" fill="#fff"/><path d="M.339 10.895c.962 1.08 3.886 2.46 5.585 1.765a.995.995 0 00.245-.155.93.93 0 00.152-.18" fill="none" stroke="#fff" stroke-width=".264" stroke-linejoin="round"/><path d="M6.654.445c.005-.014-.04-.05-.036-.06.027 0 .053-.066.053-.066.58 1.707.538 3.565.648 4.492.137 1.051.611 2.054.627 2.086.028.298-1.203.387-1.203.387s-1.09-3.817-1.09-4.036c0-.196.837-2.378 1-2.803m-.525 9.256c-.113-.065-.052-.208.078-.176.638.179 1.423.291 1.895.291.063 0 .973.042 1.86-.296.079-.03.123-.023.15.022.025.054.011.095-.042.135-.312.238-.967.592-1.957.592-.836 0-1.703-.415-1.984-.568" fill="#0063a3"/><path d="M.243 13.756h13.512V.244H.243z" fill="none" stroke="#fff" stroke-width=".35" stroke-linejoin="round"/></svg>